<?xml version="1.0"?>
<svg width="430" height="205" xmlns="http://www.w3.org/2000/svg" xmlns:svg="http://www.w3.org/2000/svg">
 <g class="layer">
  <title>Layer 1</title>
  <path class="box" d="m209.2,131.87c0,3.13 -20.82,5.67 -46.5,5.67m46.5,-5.67l0,0c0,3.13 -20.82,5.67 -46.5,5.67c-25.68,0 -46.5,-2.54 -46.5,-5.67m0,0l0,0c0,-3.13 20.82,-5.67 46.5,-5.67c25.68,0 46.5,2.54 46.5,5.67l0,22.67c0,3.13 -20.82,5.67 -46.5,5.67c-25.68,0 -46.5,-2.54 -46.5,-5.67l0,-22.67z" fill="#7f00ff" id="svg_19" stroke="#000000" transform="matrix(1 0 0 1 0 0)"/>
  <text class="txt" fill="#ffffff" font-family="Sans-serif" font-size="12" id="svg_20" stroke="#e5e5e5" stroke-width="0" text-anchor="middle" transform="matrix(1 0 0 1 0 0)" x="161" xml:space="preserve" y="151.63">und_hist</text>
  <path class="box" d="m313.8,131.87c0,3.13 -20.82,5.67 -46.5,5.67m46.5,-5.67l0,0c0,3.13 -20.82,5.67 -46.5,5.67c-25.68,0 -46.5,-2.54 -46.5,-5.67m0,0l0,0c0,-3.13 20.82,-5.67 46.5,-5.67c25.68,0 46.5,2.54 46.5,5.67l0,22.67c0,3.13 -20.82,5.67 -46.5,5.67c-25.68,0 -46.5,-2.54 -46.5,-5.67l0,-22.67z" fill="#7f00ff" id="svg_16" stroke="#000000" transform="matrix(1 0 0 1 0 0)"/>
  <text class="txt" fill="#ffffff" font-family="Sans-serif" font-size="12" id="svg_17" stroke="#e5e5e5" stroke-width="0" text-anchor="middle" transform="matrix(1 0 0 1 0 0)" x="267" xml:space="preserve" y="150.63">option_chains</text>
  <path class="box" d="m104.6,131.87c0,3.13 -20.82,5.67 -46.5,5.67m46.5,-5.67l0,0c0,3.13 -20.82,5.67 -46.5,5.67c-25.68,0 -46.5,-2.54 -46.5,-5.67m0,0l0,0c0,-3.13 20.82,-5.67 46.5,-5.67c25.68,0 46.5,2.54 46.5,5.67l0,22.67c0,3.13 -20.82,5.67 -46.5,5.67c-25.68,0 -46.5,-2.54 -46.5,-5.67l0,-22.67z" fill="#7f00ff" id="svg_2" stroke="#000000" transform="matrix(1 0 0 1 0 0)">Regenerate ORDERs</path>
  <text class="txt" fill="#ffffff" font-family="Sans-serif" font-size="12" id="svg_3" stroke="#e5e5e5" stroke-width="0" text-anchor="middle" transform="matrix(1 0 0 1 0 0)" x="55" xml:space="preserve" y="153.63">symbol</text>
  <path class="box" d="m418.4,131.87c0,3.13 -20.82,5.67 -46.5,5.67m46.5,-5.67l0,0c0,3.13 -20.82,5.67 -46.5,5.67c-25.68,0 -46.5,-2.54 -46.5,-5.67m0,0l0,0c0,-3.13 20.82,-5.67 46.5,-5.67c25.68,0 46.5,2.54 46.5,5.67l0,22.67c0,3.13 -20.82,5.67 -46.5,5.67c-25.68,0 -46.5,-2.54 -46.5,-5.67l0,-22.67z" fill="#7f00ff" id="svg_1" stroke="#000000" transform="matrix(1 0 0 1 0 0)"/>
  <text class="txt" fill="#ffffff" font-family="Sans-serif" font-size="12" id="svg_4" stroke="#e5e5e5" stroke-width="0" text-anchor="middle" transform="matrix(1 0 0 1 0 0)" x="371" xml:space="preserve" y="150.63">executions</text>
  <path class="box" d="m312.87,171.53c0,3.13 -20.82,5.67 -46.5,5.67m46.5,-5.67l0,0c0,3.13 -20.82,5.67 -46.5,5.67c-25.68,0 -46.5,-2.54 -46.5,-5.67m0,0l0,0c0,-3.13 20.82,-5.67 46.5,-5.67c25.68,0 46.5,2.54 46.5,5.67l0,22.67c0,3.13 -20.82,5.67 -46.5,5.67c-25.68,0 -46.5,-2.54 -46.5,-5.67l0,-22.67z" fill="#7f00ff" id="svg_5" stroke="#000000"/>
  <text class="txt" fill="#ffffff" font-family="Sans-serif" font-size="12" id="svg_6" stroke="#e5e5e5" stroke-width="0" text-anchor="middle" x="265" xml:space="preserve" y="188.8">opt_hist</text>
  <text fill="#000000" font-family="Sans-serif" font-size="12" id="svg_15" stroke="#000000" stroke-width="0" text-anchor="start" x="162" xml:space="preserve" y="33.13">Check portfolio</text>
  <text fill="#000000" font-family="Sans-serif" font-size="12" id="svg_18" stroke="#000000" stroke-width="0" text-anchor="start" x="162" xml:space="preserve" y="53.13">Check Open Orders</text>
  <text fill="#000000" font-family="Sans-serif" font-size="12" id="svg_21" stroke="#000000" stroke-width="0" text-anchor="start" x="162" xml:space="preserve" y="93.13">Determine targets</text>
  <text fill="#000000" font-family="Sans-serif" font-size="12" id="svg_22" stroke="#000000" stroke-width="0" text-anchor="start" x="162" xml:space="preserve" y="113.13">Place Orders</text>
  <text fill="#000000" font-family="Sans-serif" font-size="12" font-weight="bold" id="svg_25" stroke="#000000" stroke-width="0" text-anchor="start" text-decoration="underline" x="162" xml:space="preserve" y="13.13">ORDER</text>
  <text fill="#000000" font-family="Sans-serif" font-size="12" id="svg_26" stroke="#000000" stroke-width="0" text-anchor="start" x="292" xml:space="preserve" y="33.13">Watch system status</text>
  <text fill="#000000" font-family="Sans-serif" font-size="12" id="svg_27" stroke="#000000" stroke-width="0" text-anchor="start" x="292" xml:space="preserve" y="53.13">Watch Order Executions</text>
  <text fill="#000000" font-family="Sans-serif" font-size="12" id="svg_28" stroke="#000000" stroke-width="0" text-anchor="start" x="312" xml:space="preserve" y="73.13">Cancel Open Orders</text>
  <text fill="#000000" font-family="Sans-serif" font-size="12" id="svg_29" stroke="#000000" stroke-width="0" text-anchor="start" x="312" xml:space="preserve" y="93.13">Record Execution</text>
  <text fill="#000000" font-family="Sans-serif" font-size="12" font-weight="bold" id="svg_30" stroke="#000000" stroke-width="0" text-anchor="start" text-decoration="underline" x="292" xml:space="preserve" y="13.13">WATCHDOG</text>
  <text fill="#000000" font-family="Sans-serif" font-size="12" id="svg_8" stroke="#000000" stroke-width="0" text-anchor="start" x="2" xml:space="preserve" y="53.13">Generate Chains</text>
  <text fill="#000000" font-family="Sans-serif" font-size="12" id="svg_9" stroke="#000000" stroke-width="0" text-anchor="start" x="2" xml:space="preserve" y="73.13">Generate History</text>
  <text fill="#000000" font-family="Sans-serif" font-size="12" id="svg_10" stroke="#000000" stroke-width="0" text-anchor="start" x="2" xml:space="preserve" y="93.13">Determine Volatility</text>
  <text fill="#000000" font-family="Sans-serif" font-size="12" font-weight="bold" id="svg_24" stroke="#000000" stroke-width="0" text-anchor="start" text-decoration="underline" x="2" xml:space="preserve" y="13.13">GENERATE</text>
  <text fill="#000000" font-family="Sans-serif" font-size="12" id="svg_23" stroke="#000000" stroke-width="0" text-anchor="start" x="2" xml:space="preserve" y="33.13">Generate Symbols</text>
  <text fill="#000000" font-family="Sans-serif" font-size="12" id="svg_32" stroke="#000000" stroke-width="0" text-anchor="start" x="312" xml:space="preserve" y="113.13">Regenerate ORDERs</text>
  <text fill="#000000" font-family="Sans-serif" font-size="12" id="svg_11" stroke="#000000" stroke-width="0" text-anchor="start" x="162" xml:space="preserve" y="74.13">Check Margins</text>
  <text fill="#000000" font-family="Sans-serif" font-size="12" id="svg_7" stroke="#000000" stroke-width="0" style="cursor: move;" text-anchor="start" transform="matrix(1 0 0 1 0 0)" x="2" xml:space="preserve" y="112.13">Get Margins</text>
 </g>
</svg>