<?xml version="1.0"?>
<svg width="640" height="480" xmlns="http://www.w3.org/2000/svg" xmlns:svg="http://www.w3.org/2000/svg">
 <g class="layer">
  <title>Layer 1</title>
  <path class="box" d="m634.87,256.74c0,3.13 -20.82,5.67 -46.5,5.67m46.5,-5.67l0,0c0,3.13 -20.82,5.67 -46.5,5.67c-25.68,0 -46.5,-2.54 -46.5,-5.67m0,0l0,0c0,-3.13 20.82,-5.67 46.5,-5.67c25.68,0 46.5,2.54 46.5,5.67l0,22.67c0,3.13 -20.82,5.67 -46.5,5.67c-25.68,0 -46.5,-2.54 -46.5,-5.67l0,-22.67z" fill="#7f00ff" id="svg_19" stroke="#000000"/>
  <text class="txt" fill="#ffffff" font-family="Sans-serif" font-size="12" id="svg_20" stroke="#e5e5e5" stroke-width="0" text-anchor="middle" x="587" xml:space="preserve" y="278">und_hist</text>
  <path class="box" d="m633.87,182.4c0,3.13 -20.82,5.67 -46.5,5.67m46.5,-5.67l0,0c0,3.13 -20.82,5.67 -46.5,5.67c-25.68,0 -46.5,-2.54 -46.5,-5.67m0,0l0,0c0,-3.13 20.82,-5.67 46.5,-5.67c25.68,0 46.5,2.54 46.5,5.67l0,22.67c0,3.13 -20.82,5.67 -46.5,5.67c-25.68,0 -46.5,-2.54 -46.5,-5.67l0,-22.67z" fill="#7f00ff" id="svg_16" stroke="#000000"/>
  <text class="txt" fill="#ffffff" font-family="Sans-serif" font-size="12" id="svg_17" stroke="#e5e5e5" stroke-width="0" text-anchor="middle" x="586" xml:space="preserve" y="203.67">options</text>
  <path class="box" d="m633.87,108.07c0,3.13 -20.82,5.67 -46.5,5.67m46.5,-5.67l0,0c0,3.13 -20.82,5.67 -46.5,5.67c-25.68,0 -46.5,-2.54 -46.5,-5.67m0,0l0,0c0,-3.13 20.82,-5.67 46.5,-5.67c25.68,0 46.5,2.54 46.5,5.67l0,22.67c0,3.13 -20.82,5.67 -46.5,5.67c-25.68,0 -46.5,-2.54 -46.5,-5.67l0,-22.67z" fill="#7f00ff" id="svg_13" stroke="#000000">underlyings</path>
  <text class="txt" fill="#ffffff" font-family="Sans-serif" font-size="12" id="svg_14" stroke="#e5e5e5" stroke-width="0" text-anchor="middle" x="586" xml:space="preserve" y="129.33">underlyings</text>
  <path class="box" d="m633.87,33.74c0,3.13 -20.82,5.67 -46.5,5.67m46.5,-5.67l0,0c0,3.13 -20.82,5.67 -46.5,5.67c-25.68,0 -46.5,-2.54 -46.5,-5.67m0,0l0,0c0,-3.13 20.82,-5.67 46.5,-5.67c25.68,0 46.5,2.54 46.5,5.67l0,22.67c0,3.13 -20.82,5.67 -46.5,5.67c-25.68,0 -46.5,-2.54 -46.5,-5.67l0,-22.67z" fill="#7f00ff" id="svg_2" stroke="#000000"/>
  <text class="txt" fill="#ffffff" font-family="Sans-serif" font-size="12" id="svg_3" stroke="#e5e5e5" stroke-width="0" text-anchor="middle" x="586" xml:space="preserve" y="55">symbol</text>
  <path class="box" d="m632.87,406.74c0,3.13 -20.82,5.67 -46.5,5.67m46.5,-5.67l0,0c0,3.13 -20.82,5.67 -46.5,5.67c-25.68,0 -46.5,-2.54 -46.5,-5.67m0,0l0,0c0,-3.13 20.82,-5.67 46.5,-5.67c25.68,0 46.5,2.54 46.5,5.67l0,22.67c0,3.13 -20.82,5.67 -46.5,5.67c-25.68,0 -46.5,-2.54 -46.5,-5.67l0,-22.67z" fill="#7f00ff" id="svg_1" stroke="#000000"/>
  <text class="txt" fill="#ffffff" font-family="Sans-serif" font-size="12" id="svg_4" stroke="#e5e5e5" stroke-width="0" text-anchor="middle" x="585" xml:space="preserve" y="428">sexecutions</text>
  <path class="box" d="m631.87,332.4c0,3.13 -20.82,5.67 -46.5,5.67m46.5,-5.67l0,0c0,3.13 -20.82,5.67 -46.5,5.67c-25.68,0 -46.5,-2.54 -46.5,-5.67m0,0l0,0c0,-3.13 20.82,-5.67 46.5,-5.67c25.68,0 46.5,2.54 46.5,5.67l0,22.67c0,3.13 -20.82,5.67 -46.5,5.67c-25.68,0 -46.5,-2.54 -46.5,-5.67l0,-22.67z" fill="#7f00ff" id="svg_5" stroke="#000000"/>
  <text class="txt" fill="#ffffff" font-family="Sans-serif" font-size="12" id="svg_6" stroke="#e5e5e5" stroke-width="0" text-anchor="middle" x="584" xml:space="preserve" y="353.67">opt_hist</text>
  <text fill="#000000" font-family="Sans-serif" font-size="12" id="svg_15" stroke="#000000" stroke-width="0" text-anchor="start" x="170" xml:space="preserve" y="60">Check portfolio</text>
  <text fill="#000000" font-family="Sans-serif" font-size="12" id="svg_18" stroke="#000000" stroke-width="0" text-anchor="start" x="170" xml:space="preserve" y="80">Check Open Orders</text>
  <text fill="#000000" font-family="Sans-serif" font-size="12" id="svg_21" stroke="#000000" stroke-width="0" text-anchor="start" x="170" xml:space="preserve" y="100">Determine targets</text>
  <text fill="#000000" font-family="Sans-serif" font-size="12" id="svg_22" stroke="#000000" stroke-width="0" text-anchor="start" transform="matrix(1 0 0 1 0 0)" x="170" xml:space="preserve" y="120">Place Orders</text>
  <text fill="#000000" font-family="Sans-serif" font-size="12" font-weight="bold" id="svg_25" stroke="#000000" stroke-width="0" text-anchor="start" text-decoration="underline" x="170" xml:space="preserve" y="40">ORDER</text>
  <text fill="#000000" font-family="Sans-serif" font-size="12" id="svg_26" stroke="#000000" stroke-width="0" text-anchor="start" x="300" xml:space="preserve" y="60">Check system status</text>
  <text fill="#000000" font-family="Sans-serif" font-size="12" id="svg_27" stroke="#000000" stroke-width="0" text-anchor="start" x="300" xml:space="preserve" y="80">Check Order Executions</text>
  <text fill="#000000" font-family="Sans-serif" font-size="12" id="svg_28" stroke="#000000" stroke-width="0" text-anchor="start" x="300" xml:space="preserve" y="100">Cancel Open Orders</text>
  <text fill="#000000" font-family="Sans-serif" font-size="12" id="svg_29" stroke="#000000" stroke-width="0" text-anchor="start" x="300" xml:space="preserve" y="120">Record Execution</text>
  <text fill="#000000" font-family="Sans-serif" font-size="12" font-weight="bold" id="svg_30" stroke="#000000" stroke-width="0" text-anchor="start" text-decoration="underline" transform="matrix(1 0 0 1 0 0)" x="300" xml:space="preserve" y="40">WATCHDOG</text>
  <text fill="#000000" font-family="Sans-serif" font-size="12" id="svg_8" stroke="#000000" stroke-width="0" style="cursor: move;" text-anchor="start" x="10" xml:space="preserve" y="80">Generate chains</text>
  <text fill="#000000" font-family="Sans-serif" font-size="12" id="svg_9" stroke="#000000" stroke-width="0" text-anchor="start" x="10" xml:space="preserve" y="100">Generate history</text>
  <text fill="#000000" font-family="Sans-serif" font-size="12" id="svg_10" stroke="#000000" stroke-width="0" text-anchor="start" transform="matrix(1 0 0 1 0 0)" x="10" xml:space="preserve" y="120">Determine Stdevs</text>
  <text fill="#000000" font-family="Sans-serif" font-size="12" id="svg_23" stroke="#000000" stroke-width="0" text-anchor="start" x="10" xml:space="preserve" y="60">Generate symbols</text>
  <text fill="#000000" font-family="Sans-serif" font-size="12" font-weight="bold" id="svg_24" stroke="#000000" stroke-width="0" text-anchor="start" text-decoration="underline" transform="matrix(1 0 0 1 0 0)" x="10" xml:space="preserve" y="40">GENERATE</text>
  <text fill="#000000" font-family="Sans-serif" font-size="12" id="svg_32" stroke="#000000" stroke-width="0" text-anchor="start" x="300" xml:space="preserve" y="140">Regenerate ORDERs</text>
 </g>
</svg>